<svg id="レイヤー_1" data-name="レイヤー 1" xmlns="http://www.w3.org/2000/svg" viewBox="0 0 278 112"><defs><style>.cls-1{fill:#fff;}</style></defs><title>logo-type-white</title><path class="cls-1" d="M-.15,7.53A7.11,7.11,0,0,1,7.05.33a7.11,7.11,0,0,1,7.2,7.2V32.88c6-8,15.59-8.1,18.44-8.1C49,24.78,61,38.58,61,55.23c0,17-11.85,31.05-27.45,31.05-6.74,0-15.59-1-20.84-8.7l-.9,2.85a6.12,6.12,0,0,1-6,5.1,6.15,6.15,0,0,1-6-6.15ZM46.34,55.38c0-10.35-6.75-17.55-15.75-17.55-8.69,0-16.34,7.2-16.34,17.55,0,10.8,7.35,18.45,16.34,18.45S46.34,65.58,46.34,55.38Z"/><path class="cls-1" d="M71.54,55.23c0-16.65,13.95-30.45,31.05-30.45s31,13.8,31,30.45a31.05,31.05,0,1,1-62.1,0Zm47.7.15c0-10.8-7.35-17.4-16.8-17.4-9.15,0-16.5,6.6-16.5,17.4s7.35,18.45,16.5,18.45S119.24,66.18,119.24,55.38Z"/><path class="cls-1" d="M144.14,55.23c0-16.65,14-30.45,31.05-30.45s31,13.8,31,30.45a31,31,0,1,1-62.09,0Zm47.7.15c0-10.8-7.35-17.4-16.8-17.4-9.15,0-16.5,6.6-16.5,17.4s7.35,18.45,16.5,18.45S191.84,66.18,191.84,55.38Z"/><path class="cls-1" d="M263.53,79.53c-5.25,5.85-13.35,6.75-19.35,6.75-15.6,0-27.44-14.1-27.44-31.05,0-16.65,12-30.45,28.34-30.45,3,0,13.2.45,19.95,9.6l.9-3.75a6,6,0,0,1,12,1.05V104a7.2,7.2,0,1,1-14.4,0Zm0-24.15c0-10.35-7.65-17.55-16.35-17.55-9,0-15.75,7.2-15.75,17.55,0,10.2,6.9,18.45,15.75,18.45C256.18,73.83,263.53,66.18,263.53,55.38Z"/></svg>