<svg id="レイヤー_1" data-name="レイヤー 1" xmlns="http://www.w3.org/2000/svg" viewBox="0 0 686 306"><defs><style>.cls-1{fill:#fff;}</style></defs><title>logo-full-white</title><circle class="cls-1" cx="167.35" cy="139.09" r="25.4" transform="translate(-38.95 208.32) rotate(-58.28)"/><path class="cls-1" d="M167.35,193.62a54.26,54.26,0,0,0,20.77-4.11v48.85l-.59-.44-9.79-7.3c-5.54-4.13-14.6-4.13-20.13,0L94.29,277.83c-8.89,6.63-24.22,2-24.22-7.32v-235c0-5.75,6.33-10.42,14.15-10.42h28.6V139.37A54.58,54.58,0,0,0,167.35,193.62Z"/><path class="cls-1" d="M265.28,35.47v235c0,9.31-15.33,13.95-24.22,7.32l-19.18-14.31V139.09a54.56,54.56,0,0,0-75.31-50.42V25.05H251.13C259,25.05,265.28,29.72,265.28,35.47Z"/><path class="cls-1" d="M337.85,119a7.2,7.2,0,1,1,14.4,0v25.35c6-8,15.59-8.1,18.44-8.1C387,136.23,399,150,399,166.68c0,16.95-11.85,31-27.45,31-6.74,0-15.59-1.06-20.84-8.7l-.9,2.85a6,6,0,0,1-12-1Zm46.49,47.85c0-10.35-6.75-17.55-15.75-17.55-8.69,0-16.34,7.2-16.34,17.55,0,10.8,7.35,18.45,16.34,18.45S384.34,177,384.34,166.83Z"/><path class="cls-1" d="M409.54,166.68c0-16.65,13.95-30.45,31-30.45s31.05,13.8,31.05,30.45a31.05,31.05,0,0,1-62.1,0Zm47.7.15c0-10.8-7.35-17.4-16.8-17.4-9.15,0-16.5,6.6-16.5,17.4s7.35,18.45,16.5,18.45S457.24,177.63,457.24,166.83Z"/><path class="cls-1" d="M482.14,166.68c0-16.65,13.95-30.45,31.05-30.45s31,13.8,31,30.45a31,31,0,1,1-62.09,0Zm47.7.15c0-10.8-7.35-17.4-16.8-17.4-9.15,0-16.5,6.6-16.5,17.4s7.35,18.45,16.5,18.45S529.84,177.63,529.84,166.83Z"/><path class="cls-1" d="M601.53,191c-5.25,5.85-13.35,6.75-19.35,6.75-15.6,0-27.44-14.1-27.44-31,0-16.65,12-30.45,28.34-30.45,3,0,13.2.45,19.95,9.6l.9-3.75a6,6,0,0,1,12,1v72.29a7.2,7.2,0,1,1-14.4,0Zm0-24.15c0-10.35-7.65-17.55-16.35-17.55-9,0-15.75,7.2-15.75,17.55,0,10.2,6.9,18.45,15.75,18.45C594.18,185.28,601.53,177.63,601.53,166.83Z"/></svg>