<svg id="レイヤー_1" data-name="レイヤー 1" xmlns="http://www.w3.org/2000/svg" viewBox="0 0 256 256"><defs><style>.cls-1{fill:#fff;}</style></defs><title>logo-main-white</title><circle class="cls-1" cx="127.67" cy="113.77" r="25.38" transform="translate(-36.23 162.56) rotate(-58.28)"/><path class="cls-1" d="M127.67,168.25a54.35,54.35,0,0,0,20.76-4.1V213l-.59-.44-9.78-7.29c-5.53-4.13-14.59-4.13-20.12,0L54.68,252.38c-8.88,6.62-24.2,2-24.2-7.31V10.25C30.48,4.5,36.81-.16,44.62-.16H73.19V114.05A54.55,54.55,0,0,0,127.67,168.25Z"/><path class="cls-1" d="M225.52,10.25V245.07c0,9.31-15.32,13.93-24.2,7.31l-19.17-14.29V113.77A54.5,54.5,0,0,0,106.91,63.4V-.16H211.38C219.19-.16,225.52,4.5,225.52,10.25Z"/></svg>