<svg id="レイヤー_1" data-name="レイヤー 1" xmlns="http://www.w3.org/2000/svg" viewBox="0 0 297.52 418.96"><defs><style>.cls-1,.cls-2{fill:#ddd;}.cls-2{font-size:32.74px;font-family:NoyhSlimR-Medium, Noyh Slim R;font-weight:500;}</style></defs><title>no-image</title><path class="cls-1" d="M157,156.55a8.37,8.37,0,1,1-8.37-8.38A8.38,8.38,0,0,1,157,156.55Z"/><path class="cls-1" d="M155.5,173.16v16.1l-.2-.14-3.22-2.41a5.91,5.91,0,0,0-6.64,0l-20.87,15.56c-2.93,2.18-8,.66-8-2.41V122.4c0-1.9,2.09-3.44,4.67-3.44h9.42v37.68a18,18,0,0,0,18,17.88A17.77,17.77,0,0,0,155.5,173.16Z"/><path class="cls-1" d="M180.93,122.4v77.46c0,3.07-5.05,4.59-8,2.41l-2-1.5-4.31-3.21v-41a18,18,0,0,0-24.82-16.62V119h34.47C178.84,119,180.93,120.5,180.93,122.4Z"/><text class="cls-2" transform="translate(85.29 252.63)">No image</text><path class="cls-1" d="M293.76,1a3,3,0,0,1,3,3V415a3,3,0,0,1-3,3H3.76a3,3,0,0,1-3-3V4a3,3,0,0,1,3-3h290m0-1H3.76a4,4,0,0,0-4,4V415a4,4,0,0,0,4,4h290a4,4,0,0,0,4-4V4a4,4,0,0,0-4-4Z"/></svg>