<?xml version="1.0" encoding="utf-8"?>
<!-- Generator: Adobe Illustrator 23.0.4, SVG Export Plug-In . SVG Version: 6.00 Build 0)  -->
<svg version="1.1" id="レイヤー_1" xmlns="http://www.w3.org/2000/svg" xmlns:xlink="http://www.w3.org/1999/xlink" x="0px"
	 y="0px" viewBox="0 0 297.5 419" style="enable-background:new 0 0 297.5 419;" xml:space="preserve">
<style type="text/css">
	.st0{fill:#DDDDDD;}
</style>
<title>no-image</title>
<path class="st0" d="M157,156.5c0,4.6-3.8,8.4-8.4,8.4s-8.4-3.8-8.4-8.4c0-4.6,3.8-8.4,8.4-8.4C153.3,148.2,157,151.9,157,156.5z"/>
<path class="st0" d="M155.5,173.2v16.1l-0.2-0.1l-3.2-2.4c-2-1.4-4.6-1.4-6.6,0l-20.9,15.6c-2.9,2.2-8,0.7-8-2.4v-77.5
	c0-1.9,2.1-3.4,4.7-3.4h9.4v37.7c0.1,9.9,8.1,17.9,18,17.9C151,174.5,153.3,174.1,155.5,173.2z"/>
<path class="st0" d="M180.9,122.4v77.5c0,3.1-5.1,4.6-8,2.4l-2-1.5l-4.3-3.2v-41c0-9.9-8.1-18-18-18c-2.3,0-4.6,0.5-6.8,1.3V119
	h34.5C178.8,119,180.9,120.5,180.9,122.4z"/>
<path class="st0" d="M108.8,242.4v-6.8c0-0.9,0.7-1.6,1.6-1.6c0.9,0,1.6,0.7,1.6,1.6c0,0,0,0,0,0v15.4c0,0.9-0.7,1.6-1.6,1.6
	c-0.9,0-1.6-0.7-1.6-1.6c0,0,0,0,0,0v-4.1l-7.5-7.4v11.5c0,0.9-0.7,1.6-1.6,1.6c-0.9,0-1.6-0.7-1.6-1.6c0,0,0,0,0,0v-15.2
	c0-1,0.8-1.9,1.9-1.9c0.4,0,0.8,0.1,1.1,0.4L108.8,242.4z"/>
<path class="st0" d="M126.1,246c0,3.7-2.1,6.8-5.8,6.8s-5.9-3.1-5.9-6.8s2.1-6.6,5.9-6.6S126.1,242.4,126.1,246z M122.9,246
	c0-2.4-0.7-3.8-2.7-3.8s-2.7,1.4-2.7,3.8s0.7,4,2.7,4S122.9,248.4,122.9,246L122.9,246z"/>
<path class="st0" d="M137.6,234.3c1.1,0,2,0.9,2,2c0,1.1-0.9,1.9-1.9,1.9c-1.1,0-1.9-0.9-1.9-1.9l0,0
	C135.8,235.2,136.6,234.3,137.6,234.3z M136,241.1c0-0.9,0.7-1.6,1.6-1.6c0.9,0,1.6,0.7,1.6,1.6c0,0,0,0,0,0v9.9
	c0,0.9-0.7,1.6-1.6,1.6c-0.9,0-1.6-0.7-1.6-1.6c0,0,0,0,0,0V241.1z"/>
<path class="st0" d="M157.8,251.1c-0.1,0.9-0.8,1.5-1.7,1.4c-0.8-0.1-1.4-0.7-1.4-1.4v-5.9c0-2-0.1-2.9-1.2-2.9s-1.4,0.9-1.6,2
	c0,0.4,0,0.6,0,0.9v5.8c0,0.9-0.7,1.6-1.5,1.6c-0.9,0-1.6-0.7-1.6-1.5v-5.4c0-1.9-0.1-3.5-1.2-3.5c-1.5,0-1.6,1.6-1.6,3.5v5.3
	c0,0.9-0.7,1.6-1.6,1.6c-0.9,0-1.6-0.7-1.6-1.6v-10.1c0-0.7,0.6-1.3,1.3-1.3c0.6,0,1,0.6,1.3,1.1l0.2,0.4c0.5-1.1,1.6-1.8,2.8-1.7
	c1.3,0,2,0.7,2.6,2.1c0.5-1.4,1.9-2.2,3.3-2.1c2.6,0,3.4,2.5,3.4,5.5L157.8,251.1z"/>
<path class="st0" d="M169.1,240.6c0.1-0.7,0.8-1.2,1.5-1.1c0.6,0.1,1.1,0.7,1.1,1.3v10.4c0,0.7-0.6,1.3-1.3,1.3
	c-0.6,0-1.2-0.5-1.3-1.1l-0.2-0.6c-0.7,1.3-2.1,2-3.6,1.9c-3.4,0-4.9-3.1-4.9-6.8s1.5-6.6,5.4-6.6c1.3,0.1,2.5,0.8,3.2,1.9
	L169.1,240.6z M168.6,246c0-2.3-0.7-3.8-2.6-3.8s-2.4,1.6-2.4,3.8s0.5,4,2.4,4S168.6,248.4,168.6,246L168.6,246z"/>
<path class="st0" d="M186.1,252.5c0,4.7-2.6,6.6-5.5,6.6c-1.4,0.1-2.8-0.3-4-1c-0.4-0.3-0.6-0.7-0.6-1.1c0-0.7,0.6-1.3,1.2-1.3
	c0,0,0,0,0,0c0.2,0,0.4,0,0.6,0.1c0.7,0.4,1.5,0.7,2.4,0.6c2.4,0,2.7-1.3,2.7-3.3v-1.8c-0.7,1-2,1.6-3.3,1.5c-3.4,0-4.9-3.1-4.9-6.8
	s1.6-6.6,5.1-6.6c1.4,0,2.7,0.6,3.5,1.8l0.1-0.5c0.1-0.6,0.7-1.1,1.3-1.1c0.7,0,1.3,0.6,1.3,1.3L186.1,252.5z M182.9,246
	c0-2.3-0.7-3.8-2.6-3.8s-2.4,1.6-2.4,3.8s0.5,4,2.4,4S182.9,248.4,182.9,246L182.9,246z"/>
<path class="st0" d="M194.4,252.8c-3.8,0-5.9-2-5.9-6.6c0-3.6,0.9-6.8,5.4-6.8c3.6,0,5.4,2.1,5.4,6.4c0,0.9-0.7,1.6-1.6,1.6
	c0,0,0,0,0,0h-6c-0.1,1.3,0.8,2.5,2.2,2.7c0.2,0,0.3,0,0.5,0c0.7,0,1.4-0.2,2-0.6c0.2-0.1,0.4-0.2,0.6-0.2c0.7,0,1.3,0.6,1.3,1.3
	c0,0,0,0,0,0c0,0.4-0.1,0.8-0.4,1C197,252.5,195.7,252.9,194.4,252.8z M191.8,244.8h4.5c0-1.8-0.8-2.5-2.3-2.5
	S191.8,243.1,191.8,244.8L191.8,244.8z"/>
<path class="st0" d="M293.5,1.3c1.7,0,3,1.3,3,3v410.3c0,1.7-1.3,3-3,3H4c-1.7,0-3-1.3-3-3V4.3c0-1.7,1.3-3,3-3H293.5 M293.5,0.3H4
	c-2.2,0-4,1.8-4,4v410.3c0,2.2,1.8,4,4,4h289.5c2.2,0,4-1.8,4-4V4.3C297.5,2.1,295.7,0.3,293.5,0.3z"/>
</svg>
