<?xml version="1.0" standalone="no"?>
<!DOCTYPE svg PUBLIC "-//W3C//DTD SVG 20010904//EN"
 "http://www.w3.org/TR/2001/REC-SVG-20010904/DTD/svg10.dtd">
<svg version="1.0" xmlns="http://www.w3.org/2000/svg"
 width="700.000000pt" height="700.000000pt" viewBox="0 0 700.000000 700.000000"
 preserveAspectRatio="xMidYMid meet">
<metadata>
Created by potrace 1.11, written by Peter Selinger 2001-2013
</metadata>
<g transform="translate(0.000000,700.000000) scale(0.100000,-0.100000)"
fill="#000000" stroke="none">
<path d="M1059 6977 c-86 -29 -160 -86 -196 -151 l-28 -51 -1 -3250 c-1 -2732
1 -3258 13 -3297 34 -117 189 -208 360 -210 104 -2 146 6 218 42 33 17 209
141 391 278 182 136 342 255 355 265 13 9 157 116 319 237 162 121 311 232
330 246 19 14 122 91 229 170 205 154 247 179 323 200 61 16 195 16 256 0 72
-20 119 -47 269 -159 76 -57 143 -106 150 -110 9 -6 12 143 12 659 0 605 -1
665 -16 660 -194 -75 -324 -99 -533 -100 -220 0 -301 11 -485 70 -91 29 -250
103 -313 145 -24 16 -47 29 -52 29 -4 0 -10 3 -12 8 -1 4 -21 20 -43 36 -270
198 -480 513 -559 836 -44 181 -44 160 -44 1854 l0 1611 -439 2 c-431 3 -439
2 -504 -20z"/>
<path d="M2924 6135 c0 -608 3 -865 10 -863 6 2 56 18 111 36 152 49 294 69
465 66 80 -1 154 -4 165 -7 11 -2 43 -8 70 -11 53 -8 164 -36 230 -59 207 -71
391 -186 550 -342 117 -115 138 -141 210 -251 100 -153 163 -302 213 -501 l26
-108 3 -1802 4 -1802 212 -159 c116 -87 246 -184 288 -215 122 -90 249 -120
394 -92 128 24 248 109 278 199 11 34 13 554 13 3291 l-1 3250 -21 45 c-38 83
-122 147 -229 174 -52 14 -233 16 -1525 16 l-1466 0 0 -865z"/>
<path d="M3430 4579 c-216 -24 -374 -114 -500 -284 -64 -86 -97 -167 -126
-305 -3 -14 -5 -59 -5 -100 -2 -284 170 -537 438 -645 32 -13 74 -27 93 -30
19 -3 51 -9 70 -14 46 -10 167 -5 231 8 362 78 592 408 545 783 -37 298 -302
555 -602 584 -33 3 -63 6 -69 8 -5 1 -39 -1 -75 -5z"/>
</g>
</svg>
