<svg version="1" xmlns="http://www.w3.org/2000/svg" width="933.333" height="933.333" viewBox="0 0 700.000000 700.000000"><path d="M105.9 2.3c-8.6 2.9-16 8.6-19.6 15.1l-2.8 5.1-.1 325c-.1 273.2.1 325.8 1.3 329.7 3.4 11.7 18.9 20.8 36 21 10.4.2 14.6-.6 21.8-4.2 3.3-1.7 20.9-14.1 39.1-27.8 18.2-13.6 34.2-25.5 35.5-26.5 1.3-.9 15.7-11.6 31.9-23.7s31.1-23.2 33-24.6c1.9-1.4 12.2-9.1 22.9-17 20.5-15.4 24.7-17.9 32.3-20 6.1-1.6 19.5-1.6 25.6 0 7.2 2 11.9 4.7 26.9 15.9 7.6 5.7 14.3 10.6 15 11 .9.6 1.2-14.3 1.2-65.9 0-60.5-.1-66.5-1.6-66-19.4 7.5-32.4 9.9-53.3 10-22 0-30.1-1.1-48.5-7-9.1-2.9-25-10.3-31.3-14.5-2.4-1.6-4.7-2.9-5.2-2.9-.4 0-1-.3-1.2-.8-.1-.4-2.1-2-4.3-3.6-27-19.8-48-51.3-55.9-83.6-4.4-18.1-4.4-16-4.4-185.4V.5L156.3.3c-43.1-.3-43.9-.2-50.4 2zM292.4 86.5c0 60.8.3 86.5 1 86.3.6-.2 5.6-1.8 11.1-3.6 15.2-4.9 29.4-6.9 46.5-6.6 8 .1 15.4.4 16.5.7 1.1.2 4.3.8 7 1.1 5.3.8 16.4 3.6 23 5.9 20.7 7.1 39.1 18.6 55 34.2 11.7 11.5 13.8 14.1 21 25.1 10 15.3 16.3 30.2 21.3 50.1l2.6 10.8.3 180.2.4 180.2 21.2 15.9c11.6 8.7 24.6 18.4 28.8 21.5 12.2 9 24.9 12 39.4 9.2 12.8-2.4 24.8-10.9 27.8-19.9 1.1-3.4 1.3-55.4 1.3-329.1l-.1-325-2.1-4.5c-3.8-8.3-12.2-14.7-22.9-17.4C586.3.2 568.2 0 439 0H292.4v86.5z"/><path d="M343 242.1c-21.6 2.4-37.4 11.4-50 28.4-6.4 8.6-9.7 16.7-12.6 30.5-.3 1.4-.5 5.9-.5 10-.2 28.4 17 53.7 43.8 64.5 3.2 1.3 7.4 2.7 9.3 3 1.9.3 5.1.9 7 1.4 4.6 1 16.7.5 23.1-.8 36.2-7.8 59.2-40.8 54.5-78.3-3.7-29.8-30.2-55.5-60.2-58.4-3.3-.3-6.3-.6-6.9-.8-.5-.1-3.9.1-7.5.5z"/></svg>